<?xml version="1.0" standalone="no"?>
<!DOCTYPE svg PUBLIC "-//W3C//DTD SVG 20010904//EN"
 "http://www.w3.org/TR/2001/REC-SVG-20010904/DTD/svg10.dtd">
<svg version="1.0" xmlns="http://www.w3.org/2000/svg"
 width="1000.000000pt" height="1000.000000pt" viewBox="0 0 1000.000000 1000.000000"
 preserveAspectRatio="xMidYMid meet">

<g transform="translate(0.000000,1000.000000) scale(0.100000,-0.100000)"
fill="#000000" stroke="none">
<path d="M3405 5948 c-3 -7 -4 -193 -3 -413 l3 -400 290 0 290 0 3 79 c2 57
-1 82 -10 87 -7 5 -97 9 -200 9 l-188 0 -2 323 -3 322 -88 3 c-64 2 -89 -1
-92 -10z"/>
<path d="M4362 5951 c-15 -9 -302 -772 -302 -802 0 -17 8 -19 89 -19 59 0 92
4 99 13 5 6 18 38 28 70 l18 57 157 0 157 0 23 -67 24 -68 89 -3 c49 -2 93 1
98 6 9 9 -273 784 -294 809 -12 15 -164 18 -186 4z m137 -364 c23 -67 41 -128
41 -135 0 -9 -25 -12 -90 -12 -49 0 -90 3 -90 7 0 18 85 263 91 263 4 0 26
-55 48 -123z"/>
<path d="M4957 5954 c-11 -11 -8 -614 3 -655 16 -57 80 -122 152 -154 56 -26
74 -29 168 -30 95 0 111 3 167 29 73 34 137 97 153 153 7 25 10 141 8 348 l-3
310 -90 0 -90 0 -5 -295 c-4 -213 -9 -301 -18 -317 -28 -49 -124 -71 -192 -43
-61 25 -64 44 -70 365 l-5 290 -85 3 c-47 1 -89 0 -93 -4z"/>
<path d="M5803 5949 c-10 -10 -13 -104 -13 -400 0 -213 3 -394 6 -403 5 -13
23 -16 88 -16 50 0 87 5 94 12 9 9 12 95 12 325 l0 313 111 0 c109 0 111 0
140 -29 23 -23 29 -38 29 -71 0 -58 -39 -96 -106 -105 -77 -10 -74 -6 -74 -97
l0 -82 82 -124 c45 -68 90 -127 99 -133 25 -13 196 -12 205 2 3 6 -35 73 -86
147 -84 124 -90 138 -74 147 11 5 42 33 71 62 40 40 56 65 69 109 40 140 -29
290 -153 334 -55 19 -483 26 -500 9z"/>
<path d="M6856 5938 c-24 -39 -298 -787 -291 -798 3 -5 44 -10 90 -10 95 0 96
1 130 93 l18 47 155 -2 155 -3 18 -54 c10 -29 24 -60 30 -67 16 -20 177 -20
185 0 6 17 -272 774 -294 799 -12 14 -32 17 -98 17 -76 0 -85 -2 -98 -22z
m152 -361 c23 -66 39 -123 36 -128 -6 -11 -171 -12 -177 -1 -6 12 85 264 93
255 4 -4 26 -61 48 -126z"/>
<path d="M1169 5931 l-24 -19 0 -677 0 -677 24 -19 c22 -18 53 -19 973 -19
l949 0 24 25 25 24 0 664 c0 657 0 665 -21 691 l-20 26 -954 0 c-923 0 -954
-1 -976 -19z m1861 -596 l0 -505 -890 0 -890 0 0 505 0 505 890 0 890 0 0
-505z m-842 -661 c49 -34 8 -115 -51 -100 -32 8 -51 50 -36 79 22 40 50 47 87
21z"/>
<path d="M3405 4807 c-3 -6 -4 -192 -3 -412 l3 -400 250 0 c242 0 252 1 302
24 29 13 68 41 87 61 81 90 73 244 -16 315 l-34 27 32 33 c38 40 57 110 48
171 -12 85 -81 153 -179 179 -78 20 -483 22 -490 2z m465 -187 c47 -47 12
-109 -65 -117 -28 -3 -56 -10 -62 -16 -17 -12 -17 -129 -1 -145 7 -7 33 -12
59 -12 62 0 99 -28 99 -76 0 -24 -8 -43 -25 -59 -23 -24 -29 -25 -155 -25
l-130 0 0 235 0 235 130 0 c117 0 132 -2 150 -20z"/>
<path d="M4272 4808 c-19 -19 -17 -791 2 -807 9 -8 101 -11 317 -9 l304 3 3
73 c2 46 -2 79 -9 88 -9 11 -53 14 -220 14 l-209 0 0 80 0 80 180 0 c203 0
200 -1 200 82 0 94 12 88 -196 88 l-184 0 0 70 0 70 198 0 c141 0 201 3 210
12 7 7 12 40 12 78 0 38 -5 71 -12 78 -17 17 -579 17 -596 0z"/>
<path d="M5027 4813 c-4 -3 -7 -41 -7 -84 0 -95 -13 -88 191 -92 l147 -2 -174
-240 -175 -240 3 -80 3 -80 305 0 305 0 3 76 c2 55 -1 79 -11 87 -9 7 -77 13
-191 14 l-177 3 175 244 176 244 0 66 c0 39 -5 72 -12 79 -9 9 -86 12 -283 12
-150 0 -275 -3 -278 -7z"/>
<path d="M5782 4808 c-19 -19 -17 -791 2 -807 9 -8 101 -11 317 -9 l304 3 3
73 c2 46 -2 79 -9 88 -9 11 -53 14 -220 14 l-209 0 0 80 0 80 180 0 c203 0
200 -1 200 82 0 94 12 88 -196 88 l-184 0 0 70 0 70 198 0 c141 0 201 3 210
12 16 16 16 140 0 156 -17 17 -579 17 -596 0z"/>
<path d="M6575 4808 c-3 -7 -4 -193 -3 -413 l3 -400 90 0 90 0 3 323 2 322
109 0 c123 0 150 -12 171 -75 22 -66 -28 -121 -118 -132 -62 -7 -67 -18 -60
-121 5 -64 9 -73 83 -182 43 -63 85 -121 93 -127 24 -19 201 -18 208 1 3 9
-34 72 -86 148 -81 118 -89 134 -74 143 40 23 107 92 126 130 32 61 35 157 8
227 -24 65 -84 126 -147 148 -56 19 -491 27 -498 8z"/>
<path d="M7415 4808 c-3 -7 -4 -193 -3 -413 l3 -400 90 0 90 0 3 323 2 322
109 0 c123 0 150 -12 171 -75 22 -66 -28 -121 -118 -132 -62 -7 -67 -18 -60
-121 5 -64 9 -73 83 -182 43 -63 85 -121 93 -127 24 -19 201 -18 208 1 3 9
-34 72 -86 148 -81 118 -89 134 -74 143 40 23 107 92 126 130 32 61 35 157 8
227 -24 65 -84 126 -147 148 -56 19 -491 27 -498 8z"/>
<path d="M8477 4806 c-18 -18 -297 -765 -297 -795 0 -21 3 -22 92 -19 l93 3
25 67 25 68 156 0 156 0 13 -42 c28 -97 29 -98 130 -98 83 0 90 2 90 20 0 33
-281 784 -298 798 -23 18 -166 16 -185 -2z m141 -359 c23 -67 42 -128 42 -134
0 -10 -25 -13 -90 -13 -49 0 -90 3 -90 8 -1 13 85 262 90 262 3 0 24 -55 48
-123z"/>
<path d="M1910 4457 c0 -67 -27 -130 -72 -168 -37 -32 -41 -39 -29 -53 12 -14
50 -16 321 -16 170 0 315 3 324 6 25 10 19 28 -20 64 -45 40 -64 85 -64 150
l0 50 -230 0 -230 0 0 -33z"/>
<path d="M1298 4086 c-79 -95 -91 -119 -62 -130 20 -8 1788 -8 1808 0 27 10
19 31 -51 129 l-66 95 -776 -1 -776 0 -77 -93z m177 54 c-3 -5 -17 -10 -31
-10 -13 0 -24 5 -24 10 0 6 14 10 31 10 17 0 28 -4 24 -10z m115 0 c0 -5 -14
-10 -31 -10 -17 0 -28 4 -24 10 3 6 17 10 31 10 13 0 24 -4 24 -10z m120 0 c0
-5 -14 -10 -31 -10 -17 0 -28 4 -24 10 3 6 17 10 31 10 13 0 24 -4 24 -10z
m120 0 c0 -5 -13 -10 -30 -10 -16 0 -30 5 -30 10 0 6 14 10 30 10 17 0 30 -4
30 -10z m120 0 c0 -5 -13 -10 -30 -10 -16 0 -30 5 -30 10 0 6 14 10 30 10 17
0 30 -4 30 -10z m120 0 c0 -5 -13 -10 -30 -10 -16 0 -30 5 -30 10 0 6 14 10
30 10 17 0 30 -4 30 -10z m110 0 c0 -5 -13 -10 -30 -10 -16 0 -30 5 -30 10 0
6 14 10 30 10 17 0 30 -4 30 -10z m120 0 c0 -5 -13 -10 -30 -10 -16 0 -30 5
-30 10 0 6 14 10 30 10 17 0 30 -4 30 -10z m120 0 c0 -5 -13 -10 -30 -10 -16
0 -30 5 -30 10 0 6 14 10 30 10 17 0 30 -4 30 -10z m124 -17 c4 -16 9 -36 12
-46 5 -16 -2 -18 -90 -15 -104 3 -132 21 -41 26 54 3 55 4 55 32 0 26 4 30 29
30 23 0 30 -5 35 -27z m111 17 c4 -6 -7 -10 -24 -10 -17 0 -31 5 -31 10 0 6
11 10 24 10 14 0 28 -4 31 -10z m115 0 c0 -5 -11 -10 -24 -10 -14 0 -28 5 -31
10 -4 6 7 10 24 10 17 0 31 -4 31 -10z m120 0 c0 -5 -13 -10 -30 -10 -16 0
-30 5 -30 10 0 6 14 10 30 10 17 0 30 -4 30 -10z m-1462 -62 c-5 -15 -58 -24
-58 -10 0 15 12 22 38 22 14 0 22 -5 20 -12z m122 -3 c0 -10 -10 -15 -30 -15
-29 0 -38 9 -23 23 13 13 53 7 53 -8z m128 3 c-3 -7 -19 -14 -36 -16 -25 -3
-31 0 -26 12 7 19 68 23 62 4z m125 -3 c1 -5 -13 -11 -30 -13 -31 -3 -42 6
-26 22 10 10 53 3 56 -9z m127 0 c0 -16 -55 -22 -64 -6 -8 13 5 21 36 21 18 0
28 -5 28 -15z m125 0 c0 -5 -15 -11 -32 -13 -25 -3 -33 1 -33 13 0 12 8 16 33
13 17 -2 32 -7 32 -13z m125 0 c0 -16 -55 -22 -64 -6 -8 13 5 21 36 21 18 0
28 -5 28 -15z m125 0 c0 -5 -15 -11 -32 -13 -25 -3 -33 1 -33 13 0 12 8 16 33
13 17 -2 32 -7 32 -13z m373 -2 c2 -9 -7 -13 -27 -13 -30 0 -46 11 -34 24 11
11 56 2 61 -11z m122 2 c0 -10 -10 -15 -30 -15 -20 0 -30 5 -30 15 0 10 10 15
30 15 20 0 30 -5 30 -15z m128 -2 c2 -9 -7 -13 -27 -13 -30 0 -46 11 -34 24
11 11 56 2 61 -11z m-1548 -63 c0 -5 -16 -10 -36 -10 -21 0 -33 4 -29 10 3 6
19 10 36 10 16 0 29 -4 29 -10z m135 0 c-3 -5 -19 -10 -36 -10 -16 0 -29 5
-29 10 0 6 16 10 36 10 21 0 33 -4 29 -10z m135 0 c0 -5 -16 -10 -35 -10 -19
0 -35 5 -35 10 0 6 16 10 35 10 19 0 35 -4 35 -10z m660 0 c0 -6 -107 -10
-300 -10 -193 0 -300 4 -300 10 0 6 107 10 300 10 193 0 300 -4 300 -10z m130
0 c0 -5 -16 -10 -35 -10 -19 0 -35 5 -35 10 0 6 16 10 35 10 19 0 35 -4 35
-10z m130 0 c0 -5 -16 -10 -35 -10 -19 0 -35 5 -35 10 0 6 16 10 35 10 19 0
35 -4 35 -10z m130 0 c0 -5 -16 -10 -35 -10 -19 0 -35 5 -35 10 0 6 16 10 35
10 19 0 35 -4 35 -10z m135 0 c4 -6 -8 -10 -29 -10 -19 0 -38 5 -41 10 -4 6 8
10 29 10 19 0 38 -4 41 -10z m130 0 c4 -6 -8 -10 -29 -10 -20 0 -36 5 -36 10
0 6 13 10 29 10 17 0 33 -4 36 -10z"/>
</g>
</svg>
